<svg xmlns="http://www.w3.org/2000/svg" xmlns:xlink="http://www.w3.org/1999/xlink" width="80" zoomAndPan="magnify" viewBox="0 0 60 44.999999" height="60" preserveAspectRatio="xMidYMid meet" version="1.0"><defs><g/></defs><g fill="#ff00ff" fill-opacity="1"><g transform="translate(11.519332, 32.999998)"><g><path d="M 1.53125 0 L 1.53125 -23.09375 L 8.03125 -23.09375 L 8.03125 -21.375 L 3.4375 -21.375 L 3.4375 -12.46875 L 7.734375 -12.46875 L 7.734375 -10.765625 L 3.4375 -10.765625 L 3.4375 -1.734375 L 8.03125 -1.734375 L 8.03125 0 Z M 1.53125 0 "/></g></g></g><g fill="#ff00ff" fill-opacity="1"><g transform="translate(20.495802, 32.999998)"><g><path d="M 3.703125 0 L 3.703125 -21.375 L 0.75 -21.375 L 0.75 -23.09375 L 8.546875 -23.09375 L 8.546875 -21.375 L 5.625 -21.375 L 5.625 0 Z M 3.703125 0 "/></g></g></g><g fill="#ff00ff" fill-opacity="1"><g transform="translate(29.818628, 32.999998)"><g><path d="M 1.53125 0 L 1.53125 -23.09375 L 5.03125 -23.09375 C 6.332031 -23.09375 7.28125 -22.804688 7.875 -22.234375 C 8.476562 -21.660156 8.796875 -20.707031 8.828125 -19.375 C 8.890625 -18.082031 8.921875 -16.921875 8.921875 -15.890625 C 8.921875 -14.859375 8.890625 -13.816406 8.828125 -12.765625 C 8.796875 -11.429688 8.476562 -10.472656 7.875 -9.890625 C 7.28125 -9.316406 6.332031 -9.03125 5.03125 -9.03125 L 3.4375 -9.03125 L 3.4375 0 Z M 3.4375 -10.734375 L 5.03125 -10.734375 C 5.675781 -10.734375 6.148438 -10.890625 6.453125 -11.203125 C 6.753906 -11.523438 6.914062 -12.015625 6.9375 -12.671875 C 7.007812 -14.921875 7.007812 -17.1875 6.9375 -19.46875 C 6.914062 -20.113281 6.753906 -20.59375 6.453125 -20.90625 C 6.148438 -21.21875 5.675781 -21.375 5.03125 -21.375 L 3.4375 -21.375 Z M 3.4375 -10.734375 "/></g></g></g><g fill="#ff00ff" fill-opacity="1"><g transform="translate(39.487821, 32.999998)"><g><path d="M 5.40625 0.203125 C 4.070312 0.203125 3.109375 -0.0820312 2.515625 -0.65625 C 1.929688 -1.238281 1.628906 -2.203125 1.609375 -3.546875 C 1.554688 -6.304688 1.53125 -8.96875 1.53125 -11.53125 C 1.53125 -14.101562 1.554688 -16.773438 1.609375 -19.546875 C 1.628906 -20.890625 1.929688 -21.847656 2.515625 -22.421875 C 3.109375 -23.003906 4.070312 -23.296875 5.40625 -23.296875 C 6.75 -23.296875 7.707031 -23.003906 8.28125 -22.421875 C 8.863281 -21.847656 9.175781 -20.890625 9.21875 -19.546875 C 9.25 -16.773438 9.265625 -14.101562 9.265625 -11.53125 C 9.265625 -8.96875 9.25 -6.304688 9.21875 -3.546875 C 9.175781 -2.203125 8.863281 -1.238281 8.28125 -0.65625 C 7.707031 -0.0820312 6.75 0.203125 5.40625 0.203125 Z M 5.40625 -1.4375 C 6.070312 -1.4375 6.550781 -1.570312 6.84375 -1.84375 C 7.132812 -2.113281 7.28125 -2.585938 7.28125 -3.265625 C 7.375 -6.085938 7.414062 -8.863281 7.40625 -11.59375 C 7.394531 -14.332031 7.351562 -17.082031 7.28125 -19.84375 C 7.28125 -20.507812 7.132812 -20.976562 6.84375 -21.25 C 6.550781 -21.519531 6.070312 -21.65625 5.40625 -21.65625 C 4.75 -21.65625 4.273438 -21.519531 3.984375 -21.25 C 3.691406 -20.976562 3.535156 -20.507812 3.515625 -19.84375 C 3.441406 -17.082031 3.40625 -14.332031 3.40625 -11.59375 C 3.40625 -8.863281 3.441406 -6.085938 3.515625 -3.265625 C 3.535156 -2.585938 3.691406 -2.113281 3.984375 -1.84375 C 4.273438 -1.570312 4.75 -1.4375 5.40625 -1.4375 Z M 5.40625 -1.4375 "/></g></g></g><g fill="#00ffff" fill-opacity="1"><g transform="translate(9.715043, 32.999998)"><g><path d="M 1.53125 0 L 1.53125 -23.09375 L 8.03125 -23.09375 L 8.03125 -21.375 L 3.4375 -21.375 L 3.4375 -12.46875 L 7.734375 -12.46875 L 7.734375 -10.765625 L 3.4375 -10.765625 L 3.4375 -1.734375 L 8.03125 -1.734375 L 8.03125 0 Z M 1.53125 0 "/></g></g></g><g fill="#00ffff" fill-opacity="1"><g transform="translate(18.691513, 32.999998)"><g><path d="M 3.703125 0 L 3.703125 -21.375 L 0.75 -21.375 L 0.75 -23.09375 L 8.546875 -23.09375 L 8.546875 -21.375 L 5.625 -21.375 L 5.625 0 Z M 3.703125 0 "/></g></g></g><g fill="#00ffff" fill-opacity="1"><g transform="translate(28.014339, 32.999998)"><g><path d="M 1.53125 0 L 1.53125 -23.09375 L 5.03125 -23.09375 C 6.332031 -23.09375 7.28125 -22.804688 7.875 -22.234375 C 8.476562 -21.660156 8.796875 -20.707031 8.828125 -19.375 C 8.890625 -18.082031 8.921875 -16.921875 8.921875 -15.890625 C 8.921875 -14.859375 8.890625 -13.816406 8.828125 -12.765625 C 8.796875 -11.429688 8.476562 -10.472656 7.875 -9.890625 C 7.28125 -9.316406 6.332031 -9.03125 5.03125 -9.03125 L 3.4375 -9.03125 L 3.4375 0 Z M 3.4375 -10.734375 L 5.03125 -10.734375 C 5.675781 -10.734375 6.148438 -10.890625 6.453125 -11.203125 C 6.753906 -11.523438 6.914062 -12.015625 6.9375 -12.671875 C 7.007812 -14.921875 7.007812 -17.1875 6.9375 -19.46875 C 6.914062 -20.113281 6.753906 -20.59375 6.453125 -20.90625 C 6.148438 -21.21875 5.675781 -21.375 5.03125 -21.375 L 3.4375 -21.375 Z M 3.4375 -10.734375 "/></g></g></g><g fill="#00ffff" fill-opacity="1"><g transform="translate(37.683532, 32.999998)"><g><path d="M 5.40625 0.203125 C 4.070312 0.203125 3.109375 -0.0820312 2.515625 -0.65625 C 1.929688 -1.238281 1.628906 -2.203125 1.609375 -3.546875 C 1.554688 -6.304688 1.53125 -8.96875 1.53125 -11.53125 C 1.53125 -14.101562 1.554688 -16.773438 1.609375 -19.546875 C 1.628906 -20.890625 1.929688 -21.847656 2.515625 -22.421875 C 3.109375 -23.003906 4.070312 -23.296875 5.40625 -23.296875 C 6.75 -23.296875 7.707031 -23.003906 8.28125 -22.421875 C 8.863281 -21.847656 9.175781 -20.890625 9.21875 -19.546875 C 9.25 -16.773438 9.265625 -14.101562 9.265625 -11.53125 C 9.265625 -8.96875 9.25 -6.304688 9.21875 -3.546875 C 9.175781 -2.203125 8.863281 -1.238281 8.28125 -0.65625 C 7.707031 -0.0820312 6.75 0.203125 5.40625 0.203125 Z M 5.40625 -1.4375 C 6.070312 -1.4375 6.550781 -1.570312 6.84375 -1.84375 C 7.132812 -2.113281 7.28125 -2.585938 7.28125 -3.265625 C 7.375 -6.085938 7.414062 -8.863281 7.40625 -11.59375 C 7.394531 -14.332031 7.351562 -17.082031 7.28125 -19.84375 C 7.28125 -20.507812 7.132812 -20.976562 6.84375 -21.25 C 6.550781 -21.519531 6.070312 -21.65625 5.40625 -21.65625 C 4.75 -21.65625 4.273438 -21.519531 3.984375 -21.25 C 3.691406 -20.976562 3.535156 -20.507812 3.515625 -19.84375 C 3.441406 -17.082031 3.40625 -14.332031 3.40625 -11.59375 C 3.40625 -8.863281 3.441406 -6.085938 3.515625 -3.265625 C 3.535156 -2.585938 3.691406 -2.113281 3.984375 -1.84375 C 4.273438 -1.570312 4.75 -1.4375 5.40625 -1.4375 Z M 5.40625 -1.4375 "/></g></g></g><g fill="#ff0099" fill-opacity="1"><g transform="translate(10.617187, 32.999998)"><g><path d="M 1.53125 0 L 1.53125 -23.09375 L 8.03125 -23.09375 L 8.03125 -21.375 L 3.4375 -21.375 L 3.4375 -12.46875 L 7.734375 -12.46875 L 7.734375 -10.765625 L 3.4375 -10.765625 L 3.4375 -1.734375 L 8.03125 -1.734375 L 8.03125 0 Z M 1.53125 0 "/></g></g></g><g fill="#ff0099" fill-opacity="1"><g transform="translate(19.593658, 32.999998)"><g><path d="M 3.703125 0 L 3.703125 -21.375 L 0.75 -21.375 L 0.75 -23.09375 L 8.546875 -23.09375 L 8.546875 -21.375 L 5.625 -21.375 L 5.625 0 Z M 3.703125 0 "/></g></g></g><g fill="#ff0099" fill-opacity="1"><g transform="translate(28.916484, 32.999998)"><g><path d="M 1.53125 0 L 1.53125 -23.09375 L 5.03125 -23.09375 C 6.332031 -23.09375 7.28125 -22.804688 7.875 -22.234375 C 8.476562 -21.660156 8.796875 -20.707031 8.828125 -19.375 C 8.890625 -18.082031 8.921875 -16.921875 8.921875 -15.890625 C 8.921875 -14.859375 8.890625 -13.816406 8.828125 -12.765625 C 8.796875 -11.429688 8.476562 -10.472656 7.875 -9.890625 C 7.28125 -9.316406 6.332031 -9.03125 5.03125 -9.03125 L 3.4375 -9.03125 L 3.4375 0 Z M 3.4375 -10.734375 L 5.03125 -10.734375 C 5.675781 -10.734375 6.148438 -10.890625 6.453125 -11.203125 C 6.753906 -11.523438 6.914062 -12.015625 6.9375 -12.671875 C 7.007812 -14.921875 7.007812 -17.1875 6.9375 -19.46875 C 6.914062 -20.113281 6.753906 -20.59375 6.453125 -20.90625 C 6.148438 -21.21875 5.675781 -21.375 5.03125 -21.375 L 3.4375 -21.375 Z M 3.4375 -10.734375 "/></g></g></g><g fill="#ff0099" fill-opacity="1"><g transform="translate(38.585676, 32.999998)"><g><path d="M 5.40625 0.203125 C 4.070312 0.203125 3.109375 -0.0820312 2.515625 -0.65625 C 1.929688 -1.238281 1.628906 -2.203125 1.609375 -3.546875 C 1.554688 -6.304688 1.53125 -8.96875 1.53125 -11.53125 C 1.53125 -14.101562 1.554688 -16.773438 1.609375 -19.546875 C 1.628906 -20.890625 1.929688 -21.847656 2.515625 -22.421875 C 3.109375 -23.003906 4.070312 -23.296875 5.40625 -23.296875 C 6.75 -23.296875 7.707031 -23.003906 8.28125 -22.421875 C 8.863281 -21.847656 9.175781 -20.890625 9.21875 -19.546875 C 9.25 -16.773438 9.265625 -14.101562 9.265625 -11.53125 C 9.265625 -8.96875 9.25 -6.304688 9.21875 -3.546875 C 9.175781 -2.203125 8.863281 -1.238281 8.28125 -0.65625 C 7.707031 -0.0820312 6.75 0.203125 5.40625 0.203125 Z M 5.40625 -1.4375 C 6.070312 -1.4375 6.550781 -1.570312 6.84375 -1.84375 C 7.132812 -2.113281 7.28125 -2.585938 7.28125 -3.265625 C 7.375 -6.085938 7.414062 -8.863281 7.40625 -11.59375 C 7.394531 -14.332031 7.351562 -17.082031 7.28125 -19.84375 C 7.28125 -20.507812 7.132812 -20.976562 6.84375 -21.25 C 6.550781 -21.519531 6.070312 -21.65625 5.40625 -21.65625 C 4.75 -21.65625 4.273438 -21.519531 3.984375 -21.25 C 3.691406 -20.976562 3.535156 -20.507812 3.515625 -19.84375 C 3.441406 -17.082031 3.40625 -14.332031 3.40625 -11.59375 C 3.40625 -8.863281 3.441406 -6.085938 3.515625 -3.265625 C 3.535156 -2.585938 3.691406 -2.113281 3.984375 -1.84375 C 4.273438 -1.570312 4.75 -1.4375 5.40625 -1.4375 Z M 5.40625 -1.4375 "/></g></g></g></svg>